<?xml version="1.0" encoding="UTF-8"?>
<!DOCTYPE svg PUBLIC "-//W3C//DTD SVG 1.1//EN" "http://www.w3.org/Graphics/SVG/1.1/DTD/svg11.dtd">
<!-- Creator: CorelDRAW -->
<svg xmlns="http://www.w3.org/2000/svg" xml:space="preserve" width="512px" height="512px" version="1.1" style="shape-rendering:geometricPrecision; text-rendering:geometricPrecision; image-rendering:optimizeQuality; fill-rule:evenodd; clip-rule:evenodd"
viewBox="0 0 512 512"
 xmlns:xlink="http://www.w3.org/1999/xlink">
 <defs>
  <style type="text/css">
   <![CDATA[
    .fil0 {fill:black}
   ]]>
  </style>
 </defs>
 <g id="Layer_x0020_1">
  <metadata id="CorelCorpID_0Corel-Layer"/>
  <g id="_551719592">
   <g>
    <g>
     <g>
      <path class="fil0" d="M171 464c-2,0 -4,-1 -5,-2l-116 -116c-3,-3 -3,-7 0,-10l295 -295c1,-1 3,-2 5,-2 2,0 4,1 5,2l116 116c3,3 3,7 0,10l-295 295c-1,1 -3,2 -5,2zm-106 -123l106 106 285 -285 -106 -106 -285 285z"/>
     </g>
     <g>
      <path class="fil0" d="M16 512c-2,0 -4,-1 -5,-2l-9 -10c-2,-2 -3,-5 -2,-7l55 -147c1,-3 3,-4 5,-5 3,0 5,0 7,2l102 101c2,2 2,4 2,7 -1,2 -2,4 -5,5l-148 56c0,0 -1,0 -2,0zm-1 -18l3 3 133 -51 -86 -85 -50 133z"/>
     </g>
     <g>
      <path class="fil0" d="M466 169c-2,0 -4,-1 -5,-2l-116 -116c-3,-3 -3,-7 0,-10l39 -39c3,-3 7,-3 10,0l116 116c3,3 3,7 0,10l-39 39c-1,1 -3,2 -5,2zm-106 -123l106 106 29 -29 -106 -106 -29 29z"/>
     </g>
     <g>
      <path class="fil0" d="M214 420c0,0 0,0 0,0 -2,0 -4,-1 -5,-2l-57 -58c-3,-3 -3,-7 0,-10l208 -208c1,-1 3,-2 5,-2 2,0 3,1 5,2l58 58c1,1 2,3 2,5 0,2 -1,4 -2,5l-209 208c-1,1 -3,2 -5,2zm-47 -65l47 48 199 -198 -48 -48 -198 198z"/>
     </g>
     <g>
      <path class="fil0" d="M142 324c-2,0 -4,-1 -5,-2 -3,-3 -3,-7 0,-10l185 -185c3,-3 7,-3 10,0 3,3 3,7 0,10l-185 185c-1,1 -3,2 -5,2z"/>
     </g>
    </g>
    <g>
     <path class="fil0" d="M62 495c-2,0 -4,-1 -5,-2l-38 -38c-3,-3 -3,-7 0,-10 3,-3 7,-3 10,0l38 38c3,3 3,7 0,10 -1,1 -3,2 -5,2z"/>
    </g>
   </g>
  </g>
 </g>
</svg>
