<?xml version="1.0" encoding="utf-8"?>
<!-- Generator: Adobe Illustrator 23.0.3, SVG Export Plug-In . SVG Version: 6.00 Build 0)  -->
<svg version="1.1" id="Icons" xmlns="http://www.w3.org/2000/svg" xmlns:xlink="http://www.w3.org/1999/xlink" x="0px" y="0px"
	 viewBox="0 0 32 32" style="enable-background:new 0 0 32 32;" xml:space="preserve">
<style type="text/css">
	.st0{fill:none;stroke:#000000;stroke-width:2;stroke-linecap:round;stroke-linejoin:round;stroke-miterlimit:10;}
</style>
<g>
	<path d="M17.3,10.6c-1.1,0-2.1,0.4-2.9,1.2c-0.8,0.8-1.3,2-1.3,3.2v0.7c0,0.7-0.3,1.2-0.9,1.4c-0.5,0.2-0.7,0.6-0.7,1.1
		c0.1,0.5,0.5,0.8,1,0.8H17c1.2,0,2.3-0.5,3.1-1.3c0.8-0.8,1.2-1.9,1.2-3C21.3,12.5,19.5,10.7,17.3,10.6z"/>
	<path d="M30.8,1.6C30.8,1.6,30.8,1.6,30.8,1.6c-0.8-0.8-2.1-0.8-2.9,0l-8.3,7.5c1.6,0.7,2.9,2.1,3.5,3.8l7.8-8.4
		C31.6,3.7,31.6,2.4,30.8,1.6z"/>
</g>
<path d="M26.7,13.5c-0.1-0.1-0.1-0.1-0.2-0.1L25.7,13l-2.4,2.6c-0.2,1.3-0.8,2.5-1.7,3.5C20.4,20.3,18.7,21,17,21h-4.6
	c-1.5,0-2.7-1.1-3-2.5C9.2,17.2,9.9,16,11,15.4v-0.4c0-1.7,0.7-3.4,1.9-4.6c0,0,0.1-0.1,0.2-0.1C6.8,11.2,2,15.2,2,20
	c0,1.1,0.3,2.2,0.8,3.3c0.6,1.2,1.7,2.1,3,2.4C7.1,26,8.5,25.8,9.7,25c0.8-0.6,1.9-0.7,2.8-0.2s1.5,1.4,1.5,2.4V29
	c0,0.5,0.4,1,0.9,1c0.4,0,0.8,0,1.2,0c7.7,0,14-4.5,14-10C30,17.6,28.8,15.3,26.7,13.5z"/>
</svg>
