<?xml version="1.0" encoding="UTF-8" standalone="no"?> <svg xmlns="http://www.w3.org/2000/svg" viewBox="0 0 512 512"><g id="Highlighter_pen"><path d="M467.6234,124.7222,379.6449,36.7437a13.123,13.123,0,0,0-17.7649-.7349c-.7989.737-223.9154,189.599-224.5669,190.3274l-35.19,35.1859a13.4185,13.4185,0,0,0-3.8538,9.2883c0,36.0938-3.3411,76.34-28.147,101.15L44.3764,397.7068A13.1152,13.1152,0,0,0,41.83,412.6775l28.4119,59.0369c3.6038,7.9809,15.0454,9.9847,21.1059,3.5888l41.0584-41.054c24.8144-24.81,65.061-28.1556,101.1547-28.1556a13.2752,13.2752,0,0,0,9.2884-3.8527l35.1794-35.18c1.1237-.4432,189.3085-223.9239,190.3317-224.5733A13.1251,13.1251,0,0,0,467.6234,124.7222ZM85.8705,443.6614,69.5241,409.6825l9.8779-9.8779,25.1648,25.1648Zm37.8711-36.6406L97.3463,380.6255c17.3761-22.6772,23.8276-51.0271,26.0621-79.2424l79.5767,79.5714C174.77,383.189,146.42,389.6425,123.7416,407.0208Zm109.8193-32.6117L129.9538,270.81l16.6369-16.6327c25.8228,25.8228,77.7845,77.7866,103.5987,103.6029Zm34.3848-35.9912-7.2247-7.2269-94.7675-94.7739L369.63,63.8482l70.8887,70.8886Z"/></g></svg>