<?xml version="1.0" encoding="UTF-8" standalone="no"?> <svg width="64" height="64" viewBox="0 0 64 64" fill="none" xmlns="http://www.w3.org/2000/svg">
<path d="M60.89 59.5499L32.89 3.5499C32.8061 3.3861 32.6786 3.24863 32.5216 3.15264C32.3645 3.05665 32.1841 3.00586 32 3.00586C31.816 3.00586 31.6355 3.05665 31.4785 3.15264C31.3214 3.24863 31.1939 3.3861 31.11 3.5499L3.11003 59.5499C3.03332 59.7021 2.99679 59.8714 3.00393 60.0418C3.01106 60.2121 3.06162 60.3777 3.15079 60.523C3.23996 60.6683 3.36479 60.7884 3.51343 60.8718C3.66206 60.9553 3.82956 60.9994 4.00003 60.9999H60C60.1705 60.9994 60.338 60.9553 60.4866 60.8718C60.6353 60.7884 60.7601 60.6683 60.8493 60.523C60.9384 60.3777 60.989 60.2121 60.9961 60.0418C61.0033 59.8714 60.9667 59.7021 60.89 59.5499ZM5.62003 58.9999L32 6.2399L58.38 58.9999H5.62003Z" fill="black"/>
</svg>
